<?xml version="1.0" standalone="no"?>
<!DOCTYPE svg PUBLIC "-//W3C//DTD SVG 20010904//EN"
 "http://www.w3.org/TR/2001/REC-SVG-20010904/DTD/svg10.dtd">
<svg version="1.0" xmlns="http://www.w3.org/2000/svg"
 width="700.000000pt" height="700.000000pt" viewBox="0 0 700.000000 700.000000"
 preserveAspectRatio="xMidYMid meet">
<metadata>
Created by potrace 1.11, written by Peter Selinger 2001-2013
</metadata>
<g transform="translate(0.000000,700.000000) scale(0.100000,-0.100000)"
fill="#000000" stroke="none">
<path d="M3259 6906 c-2 -2 -35 -6 -74 -10 -92 -7 -218 -23 -280 -36 -27 -5
-65 -12 -83 -15 -18 -3 -94 -21 -168 -40 -439 -113 -833 -302 -1199 -576 -158
-118 -205 -159 -360 -314 -158 -157 -207 -213 -325 -370 -371 -491 -614 -1117
-665 -1715 -4 -41 -9 -91 -11 -110 -5 -47 -5 -410 0 -435 2 -11 7 -63 11 -115
3 -52 8 -97 10 -100 2 -3 6 -32 9 -64 4 -33 11 -78 16 -100 4 -23 11 -59 14
-81 11 -69 75 -305 118 -430 65 -192 181 -446 268 -590 16 -27 33 -57 37 -65
32 -69 227 -338 341 -470 71 -82 255 -268 337 -340 132 -117 361 -281 527
-378 368 -216 823 -375 1223 -428 28 -3 59 -8 69 -10 135 -26 718 -26 851 0
11 2 43 7 70 10 28 4 73 11 100 16 28 5 64 12 80 15 113 19 422 108 541 156
16 6 38 15 49 19 86 34 295 133 364 172 46 26 86 48 88 48 18 0 389 257 440
304 6 6 37 33 70 61 66 56 297 285 361 360 66 75 232 299 289 390 294 465 474
991 519 1515 3 36 7 79 9 95 6 38 6 386 1 445 -3 25 -7 78 -11 119 -4 41 -8
82 -10 91 -2 9 -6 41 -10 71 -6 46 -16 101 -41 229 -27 134 -95 358 -158 520
-48 123 -161 356 -214 444 -23 37 -42 70 -42 72 0 21 -248 364 -337 464 -78
90 -282 292 -363 361 -327 280 -713 500 -1115 638 -153 52 -355 105 -475 125
-19 3 -46 8 -60 10 -42 8 -97 16 -152 22 -29 3 -64 8 -78 11 -29 6 -575 15
-581 9z m501 -530 c111 -12 141 -16 174 -21 17 -3 58 -10 91 -16 326 -55 713
-207 1016 -399 92 -58 251 -170 269 -190 3 -3 34 -30 70 -60 344 -290 637
-703 810 -1140 27 -67 70 -194 81 -235 4 -16 14 -55 23 -86 24 -90 58 -261 71
-369 26 -200 25 -551 -1 -730 -12 -86 -36 -218 -44 -250 -5 -19 -11 -46 -13
-60 -3 -14 -15 -59 -27 -100 -122 -421 -323 -793 -599 -1110 -343 -395 -777
-685 -1266 -848 -95 -31 -223 -68 -265 -76 -14 -2 -45 -9 -70 -14 -25 -6 -63
-13 -85 -17 -22 -3 -56 -8 -75 -11 -206 -34 -588 -38 -787 -8 -92 13 -221 36
-253 44 -19 5 -46 11 -60 13 -38 7 -163 44 -265 79 -720 247 -1329 791 -1660
1483 -78 162 -178 445 -201 565 -3 14 -9 41 -14 60 -8 32 -31 161 -44 253 -13
83 -20 220 -20 372 0 224 12 351 50 545 125 639 468 1228 955 1641 75 63 87
73 179 143 141 108 429 268 625 346 166 67 433 142 580 165 122 18 188 26 260
31 44 4 81 7 82 8 6 6 353 -2 413 -8z"/>
<path d="M2450 3500 c0 -863 2 -1570 4 -1570 2 0 406 241 898 536 491 295 909
546 929 558 182 106 788 472 789 476 0 3 -37 27 -83 53 -45 26 -145 86 -221
132 -77 47 -141 85 -142 85 -1 0 -31 18 -65 39 -69 42 -468 282 -528 317 -20
12 -157 95 -306 184 -148 89 -283 170 -300 180 -16 10 -241 144 -498 299 -258
154 -470 281 -473 281 -2 0 -4 -706 -4 -1570z"/>
</g>
</svg>
